<svg width="120" height="120" viewBox="0 0 120 120" fill="none" xmlns="http://www.w3.org/2000/svg">
<mask id="mask0_2249_7229" style="mask-type:alpha" maskUnits="userSpaceOnUse" x="0" y="0" width="120" height="120">
<rect width="120" height="120" fill="#D9D9D9"/>
</mask>
<g mask="url(#mask0_2249_7229)">
<path d="M22.5 60.625C19 60.625 16.0417 59.4167 13.625 57C11.2083 54.5833 10 51.625 10 48.125C10 44.625 11.2083 41.6667 13.625 39.25C16.0417 36.8333 19 35.625 22.5 35.625C26 35.625 28.9583 36.8333 31.375 39.25C33.7917 41.6667 35 44.625 35 48.125C35 51.625 33.7917 54.5833 31.375 57C28.9583 59.4167 26 60.625 22.5 60.625ZM45 40.625C41.5 40.625 38.5417 39.4167 36.125 37C33.7083 34.5833 32.5 31.625 32.5 28.125C32.5 24.625 33.7083 21.6667 36.125 19.25C38.5417 16.8333 41.5 15.625 45 15.625C48.5 15.625 51.4583 16.8333 53.875 19.25C56.2917 21.6667 57.5 24.625 57.5 28.125C57.5 31.625 56.2917 34.5833 53.875 37C51.4583 39.4167 48.5 40.625 45 40.625ZM75 40.625C71.5 40.625 68.5417 39.4167 66.125 37C63.7083 34.5833 62.5 31.625 62.5 28.125C62.5 24.625 63.7083 21.6667 66.125 19.25C68.5417 16.8333 71.5 15.625 75 15.625C78.5 15.625 81.4583 16.8333 83.875 19.25C86.2917 21.6667 87.5 24.625 87.5 28.125C87.5 31.625 86.2917 34.5833 83.875 37C81.4583 39.4167 78.5 40.625 75 40.625ZM97.5 60.625C94 60.625 91.0417 59.4167 88.625 57C86.2083 54.5833 85 51.625 85 48.125C85 44.625 86.2083 41.6667 88.625 39.25C91.0417 36.8333 94 35.625 97.5 35.625C101 35.625 103.958 36.8333 106.375 39.25C108.792 41.6667 110 44.625 110 48.125C110 51.625 108.792 54.5833 106.375 57C103.958 59.4167 101 60.625 97.5 60.625ZM33.25 110.625C29.5 110.625 26.3542 109.188 23.8125 106.312C21.2708 103.438 20 100.042 20 96.125C20 91.7917 21.4792 88 24.4375 84.75C27.3958 81.5 30.3333 78.2917 33.25 75.125C35.6667 72.5417 37.75 69.7292 39.5 66.6875C41.25 63.6458 43.3333 60.7917 45.75 58.125C47.5833 55.9583 49.7083 54.1667 52.125 52.75C54.5417 51.3333 57.1667 50.625 60 50.625C62.8333 50.625 65.4583 51.2917 67.875 52.625C70.2917 53.9583 72.4167 55.7083 74.25 57.875C76.5833 60.5417 78.6458 63.4167 80.4375 66.5C82.2292 69.5833 84.3333 72.4583 86.75 75.125C89.6667 78.2917 92.6042 81.5 95.5625 84.75C98.5208 88 100 91.7917 100 96.125C100 100.042 98.7292 103.438 96.1875 106.312C93.6458 109.188 90.5 110.625 86.75 110.625C82.25 110.625 77.7917 110.25 73.375 109.5C68.9583 108.75 64.5 108.375 60 108.375C55.5 108.375 51.0417 108.75 46.625 109.5C42.2083 110.25 37.75 110.625 33.25 110.625Z" fill="url(#paint0_linear_2249_7229)"/>
</g>
<defs>
<linearGradient id="paint0_linear_2249_7229" x1="38.5816" y1="15.625" x2="82.9313" y2="112.406" gradientUnits="userSpaceOnUse">
<stop stop-color="#2370FF"/>
<stop offset="1" stop-color="#032AA5"/>
</linearGradient>
</defs>
</svg>
